<?xml version="1.0" standalone="no"?><!DOCTYPE svg PUBLIC "-//W3C//DTD SVG 1.1//EN" "http://www.w3.org/Graphics/SVG/1.1/DTD/svg11.dtd"><svg t="1758686479823" class="icon" viewBox="0 0 1024 1024" version="1.1" xmlns="http://www.w3.org/2000/svg" p-id="22843" width="32" height="32" xmlns:xlink="http://www.w3.org/1999/xlink"><path d="M231.982487 0.463458m199.477895-0.438675l19.231328-0.042292q199.477895-0.438676 199.91657 199.039219l1.37423 624.900328q0.438676 199.477895-199.039219 199.91657l-19.231328 0.042292q-199.477895 0.438676-199.91657-199.039219l-1.37423-624.900328q-0.438676-199.477895 199.039219-199.91657Z" fill="#DBB61B" p-id="22844"></path><path d="M278.793466 260.04778s164.975028-120.808856 326.81553-0.707036l-30.096158 146.709936a356.298925 356.298925 0 0 0-270.252664-1.838293zM312.471939 721.435798s142.750535 35.422495 261.461852-0.565628l0.377086 173.035236S430.711899 980.752975 312.849025 894.494603z" fill="#383001" p-id="22845"></path><path d="M651.330647 278.713526l35.681742 30.567516 0.023568 14.423531-35.634606-11.336141-0.070704-33.654906zM233.142519 279.632673L197.602184 310.365164l0.023568 14.399963 35.58747-11.477548-0.070703-33.654906z" fill="#DBB61B" p-id="22846"></path><path d="M233.189654 308.833253s43.364865 37.732146 43.553408 124.273332l0.707036 317.223411-28.917766-28.752791-0.77774-360.517572zM651.401351 307.890538s-43.176322 37.944256-42.987779 124.485443l0.707036 317.223411 28.75279-28.894197-0.777739-360.494005z" fill="#383001" p-id="22847"></path></svg>