<?xml version="1.0" standalone="no"?><!DOCTYPE svg PUBLIC "-//W3C//DTD SVG 1.1//EN" "http://www.w3.org/Graphics/SVG/1.1/DTD/svg11.dtd"><svg t="1758518707204" class="icon" viewBox="0 0 1024 1024" version="1.1" xmlns="http://www.w3.org/2000/svg" p-id="14495" xmlns:xlink="http://www.w3.org/1999/xlink" width="32" height="32"><path d="M452.809683 3.366969c-113.581419 15.997383-209.565716 71.988223-267.156295 158.374091C140.860716 230.529807 116.864642 334.512796 128.06281 420.898664c6.398953 46.39241 11.198168 65.58927 33.594504 108.782204 22.396336 46.39241 36.793981 65.58927 124.779587 172.771735 113.581419 137.577493 161.573568 204.766501 203.166763 287.952893 9.59843 17.597121 19.19686 33.594504 20.796598 33.594504 3.199477 0 7.998691-7.998691 11.198168-17.597121 12.797906-30.395028 79.986915-139.177231 118.380633-190.368857 20.796598-27.195551 63.989532-81.586653 95.984298-119.980372 129.578802-155.174614 159.973829-212.765193 159.973829-311.948967 0-151.975138-71.988223-275.154986-199.967286-340.744256C631.980372 9.765922 531.19686-7.831199 452.809683 3.366969z" fill="#E73535" p-id="14496"></path><path d="M512 385.704421m-310.349229 0a310.349229 310.349229 0 1 0 620.698458 0 310.349229 310.349229 0 1 0-620.698458 0Z" fill="#FFFFFF" p-id="14497"></path><path d="M500.801832 244.927451c25.595813 0 46.39241-19.19686 46.39241-44.792672v-1.599738c0-23.996074-20.796598-44.792672-44.792672-44.792672-25.595813 0-46.39241 19.19686-46.39241 44.792672v1.599738c1.599738 23.996074 20.796598 44.792672 44.792672 44.792672z m-67.189008 172.771736s-55.99084-27.195551-76.787438-31.994766c-4.799215-1.599738-9.59843 1.599738-11.198168 6.398953-6.398953 23.996074-35.194242 116.780895-43.192934 145.576185-1.599738 4.799215 1.599738 9.59843 6.398953 11.198168h19.196859c3.199477 0 6.398953-1.599738 7.998692-4.799215 9.59843-22.396336 36.793981-103.982989 39.993457-103.982989 30.395028 0 57.590579 39.993457 55.99084 51.191625-1.599738 14.397645-9.59843 31.994766-15.997383 44.792673-3.199477 4.799215-1.599738 9.59843 3.199477 12.797906 1.599738 0 3.199477 1.599738 4.799215 1.599738h19.196859c3.199477 0 6.398953-1.599738 7.998692-4.799215 15.997383-27.195551 22.396336-44.792672 22.396336-55.99084 0-25.595813-25.595813-65.58927-39.993457-71.988223z" fill="#E73535" p-id="14498"></path><path d="M716.766501 547.277989l-73.587961-151.975138c-12.797906-22.396336-36.793981-6.398953-49.591887 15.997383l-31.994766 47.992149-17.597121-15.997383v-7.998692c-4.799215-33.594504-30.395028-151.975138-47.992149-171.171997l-1.599738-1.599738-54.391102-31.994766c-3.199477-1.599738-6.398953-1.599738-9.59843-1.599739-19.19686 1.599738-62.389793 7.998691-76.787438 9.59843-3.199477 0-4.799215 1.599738-6.398953 4.799215-4.799215 9.59843-17.597121 31.994766-23.996075 51.191625-3.199477 6.398953-1.599738 15.997383 3.199477 20.796598l9.59843 7.998692 33.594504 27.195551c3.199477 3.199477 4.799215 6.398953 3.199477 9.598429-3.199477 9.59843 0 3.199477-1.599739 7.998692s1.599738 9.59843 4.799215 11.198168c14.397645 6.398953 55.99084 28.795289 70.388485 33.594504 4.799215 1.599738 3.199477-3.199477 4.799215-7.998691l-1.599738-3.199477 95.984297 79.986915-38.393719 70.388485c-3.199477 6.398953 1.599738 14.397645 7.998692 14.397644H703.968595c11.198168 3.199477 17.597121-9.59843 12.797906-19.196859zM400.01832 283.32117c-4.799215 7.998691-7.998691 17.597121-12.797907 31.994766-1.599738 6.398953-9.59843 7.998691-14.397644 3.199477l-17.597122-17.597121c-1.599738-1.599738 6.398953-17.597121 11.198168-27.195551 1.599738-3.199477 4.799215-4.799215 7.998692-4.799215h17.597121c7.998691 0 11.198168 7.998691 7.998692 14.397644z m60.790055 91.185083l11.198168-31.994766c3.199477-7.998691 14.397645-7.998691 15.997383 0 6.398953 22.396336 15.997383 55.99084 23.996074 78.387177l-51.191625-46.392411z" fill="#E73535" p-id="14499"></path></svg>