<?xml version="1.0" standalone="no"?><!DOCTYPE svg PUBLIC "-//W3C//DTD SVG 1.1//EN" "http://www.w3.org/Graphics/SVG/1.1/DTD/svg11.dtd"><svg t="1758615346216" class="icon" viewBox="0 0 1024 1024" version="1.1" xmlns="http://www.w3.org/2000/svg" p-id="11544" xmlns:xlink="http://www.w3.org/1999/xlink" width="64" height="64"><path d="M0.726483 0.726483m99.928903 0l821.233711 0q99.928903 0 99.928903 99.928903l0 821.233711q0 99.928903-99.928903 99.928903l-821.233711 0q-99.928903 0-99.928903-99.928903l0-821.233711q0-99.928903 99.928903-99.928903Z" fill="#F78922" p-id="11545"></path><path d="M524.659717 324.728963c42.53174 0.863386 77.153107-35.588679 76.332691-80.36882-0.746469-42.422817-33.279323-76.597503-73.497708-77.382943-42.53074-0.864385-77.153107 35.588679-76.332691 80.36782 0.746469 42.423816 33.279323 76.597503 73.497708 77.382944z m-84.390958 315.345639s-89.987976-46.273078-125.87844-55.072817c-7.834426-1.884659-15.668852 3.06382-17.758366 11.156062-11.043143 42.737593-56.260972 200.252525-69.990203 252.339467-2.612142 9.976902 4.476815 19.875859 14.399755 19.875858h26.266312c6.0437 0 11.415878-3.771317 13.729232-9.663124 15.147223-38.180835 59.394742-178.569952 66.109964-178.569952 50.291219-0.314776 92.599118 68.112539 90.957286 88.616951-2.088514 25.297002-15.818745 55.778315-26.563101 76.283726-5.447124 10.448566 1.715779 23.3324 13.05771 23.332399h30.070605c5.223284 0 10.14778-2.906932 12.833869-7.699522 27.160676-48.078793 36.189252-77.774665 36.264199-95.608976 0.297788-44.308476-40.741014-113.913953-63.498822-124.991072z" fill="#FFFFFF" p-id="11546"></path><path d="M874.292961 820.835994L757.009405 585.2616c-19.024465-34.985109-58.676253-10.207737-77.700718 24.777371l-50.801855 75.516272-26.898862-26.995793c0.557603-3.550474 0.557603-7.766474-0.209851-12.574054-8.640852-53.328058-47.038533-235.796236-75.122552-265.086397-0.905356-0.961316-1.950612-1.774737-3.135769-2.366316l-86.968124-48.890216c-4.390876-2.51521-9.339355-3.624421-14.356786-3.402579-30.313433 1.552895-99.373298 12.278264-121.533531 15.828738-4.390876 0.739474-8.224149 3.623422-10.313662 7.765475-7.177893 14.64558-27.387514 50.665952-38.606533 78.771956-4.459827 11.094107-2.090513 23.96395 5.992737 32.469898l14.98234 12.869843 51.917062 42.529742c4.599727 3.771317 6.55034 10.206738 4.808579 16.123528-4.599727 15.459001-0.487653 4.216-2.230413 11.463844-1.741761 7.32279 1.951611 14.94137 8.711802 17.529528 23.833043 9.245422 87.526727 44.82211 112.056274 52.218847 6.899091 2.070527 5.713935-5.399159 8.362051-12.426159l-2.718066-3.846263L606.138746 721.798457l-60.976616 110.131644c-5.366182 9.837001 1.324058 22.189213 12.055423 22.189213h298.957298c16.098546 0 26.202358-18.490844 18.119109-33.28332z m-500.144159-411.534203c-6.689241 13.090686-12.820878 28.327845-20.765226 50.073374-3.554471 9.837001-15.402042 12.573055-22.579935 5.325211l-27.804218-27.736266c-1.394008-1.258105 10.382613-28.254897 17.630456-42.529741 2.508215-4.955474 7.386745-7.914369 12.682977-7.766474l29.059325 0.888368c10.313662 0.221842 16.7251 12.055423 11.77762 21.744529z m96.098628 143.045227l18.676712-48.890216c4.87753-12.942792 22.369085-12.203318 26.271308 1.109211 10.03486 34.541425 24.181795 86.686325 39.234086 121.671433l-84.182106-73.890428z" fill="#FFFFFF" p-id="11547"></path></svg>