<?xml version="1.0" standalone="no"?><!DOCTYPE svg PUBLIC "-//W3C//DTD SVG 1.1//EN" "http://www.w3.org/Graphics/SVG/1.1/DTD/svg11.dtd"><svg t="1758507983014" class="icon" viewBox="0 0 1024 1024" version="1.1" xmlns="http://www.w3.org/2000/svg" p-id="13165" width="32" height="32" xmlns:xlink="http://www.w3.org/1999/xlink"><path d="M466.9 147.7L75.2 813.8c-21.4 36.4 4.8 82.3 47 82.3h783.5c42.2 0 68.4-45.9 47-82.3L561 147.7c-21.1-35.9-73-35.9-94.1 0z" fill="#F7D323" p-id="13166"></path><path d="M935.3 821L549.9 160c-16-27.4-55.9-27.4-71.8 0L92.6 821c-16 27.4 4 61.6 35.9 61.6h770.9c31.9 0 51.9-34.3 35.9-61.6z m-766.1-1.4l344.7-591.1 344.7 591.1H169.2z" fill="#191919" p-id="13167"></path><path d="M461.4 494.7c3-0.1 5.9 0.5 8.5 1.9l51.8 27.4c0.7 0.3 1.3 0.8 1.9 1.3 16.7 16.4 39.6 118.8 44.7 148.7 0.5 2.7 0.5 5.1 0.1 7.1l16 15.1 30.2-42.3c11.3-19.6 34.9-33.5 46.3-13.9l69.8 132.1c2.2 3.9 2.2 8.6 0 12.4-2.2 3.8-6.3 6.2-10.8 6.2H542c-3 0-5.7-1.6-7.2-4.2s-1.5-5.7 0-8.3l36.3-61.8-91-69.7 1.6 2.1c-1.6 3.9-0.9 8.1-5 7-14.6-4.2-52.5-24.1-66.7-29.3-4-1.5-6.2-5.7-5.2-9.8s-1.4 2.2 1.3-6.4c1-3.3-0.1-6.9-2.9-9l-30.9-23.8-8.9-7.2c-4.8-4.8-6.2-12-3.6-18.2 6.7-15.8 18.7-36 23-44.2 1.3-2.3 3.5-3.9 6.1-4.4 13.4-1.9 54.5-8 72.5-8.8zM405.9 640l1.3 0.2c20 4.6 70 29.1 70 29.1 12.6 5.9 35.5 42.6 35.3 66-0.1 9.4-5.1 25.1-20.2 50.5-1.5 2.5-4.2 4.1-7.1 4.1h-16.7c-2.9 0-5.6-1.6-7.1-4.1s-1.5-5.7-0.1-8.2c6-10.8 13.6-26.9 14.8-40.3 0.9-10.8-22.6-46.9-50.6-46.8-3.7 0-28.3 74.1-36.8 94.3-1.3 3.1-4.3 5.1-7.6 5.1h-14.6c-2.6 0-5-1.2-6.6-3.3s-2.1-4.7-1.4-7.2c7.6-27.5 32.8-110.7 38.9-133.2 1.2-4.3 5.5-6.9 9.9-5.9l-1.4-0.3zM517 594.7c-1-3.4-4.1-5.7-7.6-5.8-3.5-0.1-6.7 2-8 5.2l-11.1 27.4 50.1 41.4c-9-19.6-17.4-48.9-23.4-68.2z m-108.2-66.1c-3.1-0.1-6.1 1.6-7.5 4.4-4.3 8-11.3 23.1-10.5 23.9l16.6 15.6c2 1.9 4.8 2.7 7.5 2.1 2.7-0.6 4.9-2.5 5.9-5.1 4.7-12.2 8.4-20.7 12.4-28.1 1.4-2.5 1.3-5.6-0.1-8.1s-4.1-4.1-6.9-4.1l-17.4-0.6z m116.9-109.1c15 0 28.9 8.2 36.3 21.3 7.3 13.1 7 29.2-0.8 42.1-7.8 12.8-22 20.5-37 19.9-22.7-0.8-40.6-19.7-40.2-42.4 0.4-22.8 19-40.9 41.7-40.9z" fill="#191919" p-id="13168"></path></svg>