<?xml version="1.0" standalone="no"?><!DOCTYPE svg PUBLIC "-//W3C//DTD SVG 1.1//EN" "http://www.w3.org/Graphics/SVG/1.1/DTD/svg11.dtd"><svg t="1758615143445" class="icon" viewBox="0 0 1024 1024" version="1.1" xmlns="http://www.w3.org/2000/svg" p-id="5354" width="64" height="64" xmlns:xlink="http://www.w3.org/1999/xlink"><path d="M508.586667 34.133333c187.733333 0 341.333333 153.6 341.333333 341.333334s-153.6 341.333333-341.333333 341.333333-341.333333-153.6-341.333334-341.333333 153.6-341.333333 341.333334-341.333334z" fill="#FFFFFF" p-id="5355"></path><path d="M512 0C307.2 0 136.533333 170.666667 136.533333 382.293333 136.533333 529.066667 245.76 682.666667 245.76 682.666667L512 1024l249.173333-341.333333c-3.413333 0 126.293333-167.253333 126.293334-300.373334C887.466667 170.666667 716.8 0 512 0z m0 692.906667c-81.92 0-160.426667-34.133333-218.453333-92.16C235.52 546.133333 204.8 460.8 204.8 375.466667s34.133333-163.84 92.16-221.866667c58.026667-58.026667 139.946667-92.16 218.453333-92.16C682.666667 64.853333 819.2 204.8 819.2 378.88c0 170.666667-139.946667 314.026667-307.2 314.026667z" fill="#FF1515" p-id="5356"></path><text x="512" y="530" font-family="Arial, sans-serif" font-size="430" font-weight="bold" text-anchor="middle" fill="#FF1515">终</text></svg>