<?xml version="1.0" standalone="no"?><!DOCTYPE svg PUBLIC "-//W3C//DTD SVG 1.1//EN" "http://www.w3.org/Graphics/SVG/1.1/DTD/svg11.dtd"><svg t="1758615214644" class="icon" viewBox="0 0 1024 1024" version="1.1" xmlns="http://www.w3.org/2000/svg" p-id="6612" xmlns:xlink="http://www.w3.org/1999/xlink" width="64" height="64"><path d="M740.8 571.4c0.6-0.6 0.6-1.2 1.2-1.8l0.6-0.6c55.5-83.1 60.8-190 13.8-278.1-47-88.1-138.7-143.2-238.6-143.2-149.7 0-271.1 121-271.1 270.8-0.2 53.6 15.7 106 45.7 150.5l0.6 0.6c0.6 0.6 0.6 1.2 1.2 1.8l198.4 285.3c0 0.2 0.1 0.3 0.2 0.4 0.1 0.1 0.3 0.2 0.4 0.2v0.6c5.6 7.6 14.6 12.1 24 12 9.4-0.1 18.3-4.5 24-12l0.6-1.2 199-285.3zM517.2 210.8c114.1 0 207.5 93.5 207.5 207.7 0 114.2-93.4 207.7-207.5 207.7s-207.5-93.5-207.5-207.7c0-114.2 93.4-207.7 207.5-207.7z m0 0" fill="#FF1515" p-id="6613"></path><path d="M517.2 210.8c114.1 0 207.5 93.5 207.5 207.7 0 114.2-93.4 207.7-207.5 207.7s-207.5-93.5-207.5-207.7c0-114.2 93.4-207.7 207.5-207.7z m0 0" fill="#FFFFFF" p-id="6614"></path><path d="M389.5 523.8c-2.2-9 1.5-14.9 11.2-17.9 26.9-6.7 51.1-15.7 72.7-26.9 6.7-2.2 12.7-0.4 17.9 5.6 6 11.2 4.1 19-5.6 23.5-19.4 8.2-43.6 17.2-72.7 26.9-13.4 3-21.2-0.7-23.5-11.2z m52.6-168.9h6.7c1.5-2.2 4.5-6 9-11.2 3.7-4.5 6.7-8.2 9-11.2 7.4-9 16-10.4 25.7-4.5 6.7 7.5 7.4 14.9 2.2 22.4-3 3.7-7.5 9.3-13.4 16.8-19.4 26.1-32.5 43.6-39.2 52.6-3 6.7-1.1 9.7 5.6 9 2.2 0.8 6 0.4 11.2-1.1 3-0.7 5.6-1.5 7.8-2.2 8.2-0.7 13.4 2.6 15.7 10.1 1.5 10.5-2.2 16.8-11.2 19-9.7 3-19 5.2-28 6.7-9 0.8-17.2 1.1-24.6 1.1-13.4 1.5-21.3-1.5-23.5-9-3-5.2-1.9-13 3.4-23.5 3-6.7 9.3-16.4 19-29.1 5.2-7.4 9.3-13.4 12.3-17.9h-21.3c-12.7 0-18.7-3.7-17.9-11.2-0.8-6.7 1.9-15.3 7.8-25.7 2.2-3 8.2-11.9 17.9-26.9 9.7-14.9 16-24.2 19-28 6-9 14.2-11.6 24.6-7.8 8.2 5.2 10.4 11.6 6.7 19-4.5 9.7-14.2 24.6-29.1 44.8-3 3-4.1 5.2-3.4 6.7 0.9 1.4 3.5 1.8 8 1.1z m119.7-56H620c15.7 1.5 20.9 10.5 15.7 26.9-8.2 28.4-20.9 51.1-38 68.3 11.9 10.5 26.1 19.4 42.5 26.9 11.9 6.7 16 14.9 12.3 24.6-5.2 10.5-14.9 11.6-29.1 3.4-17.9-8.2-34.7-19-50.4-32.5-23.1 17.9-44 30.2-62.7 36.9-13.4 5.2-21.6 2.6-24.6-7.8-3.7-9.7 0.4-17.2 12.3-22.4 20.1-7.4 37.7-17.5 52.6-30.2-8.2-7.4-15.3-16-21.3-25.7-1.5 1.5-3 3.7-4.5 6.7-2.2 3-4.5 6-6.7 9-7.5 8.2-14.9 10.1-22.4 5.6-9-5.2-10.1-13-3.4-23.5 16.4-20.1 29.1-42.9 38-68.3 3-9.7 9.3-13.8 19-12.3 8.4 2.1 12.5 7 12.5 14.4z m63.8 246.2C592 537.6 557 530.9 520.4 525c-11.9-2.2-16.4-9-13.4-20.1 0.7-9.7 7.4-13.8 20.1-12.3 50.7 9 84.7 15.3 101.8 19 10.4 2.2 15.3 8.6 14.5 19-1.4 10.4-7.3 15.2-17.8 14.5z m-35.8-61.6c-10.5-4.5-23.5-9-39.2-13.4-2.2-0.7-3.7-1.5-4.5-2.2-9.7-1.5-13.4-7.4-11.2-17.9 1.5-8.2 7.1-11.9 16.8-11.2 17.2 3.7 33.6 9.3 49.2 16.8 10.4 5.2 14.2 11.9 11.2 20.1-3.6 10.5-11.1 13.1-22.3 7.8z m2.3-154.4h-41.4c-1.5 2.2-2.6 4.9-3.4 7.8 13.4 20.1 22.4 31.7 26.9 34.7 9.7-11.2 17.2-22.7 22.4-34.7 0.7-5.2-0.8-7.8-4.5-7.8z" fill="#FF1515" p-id="6615"></path></svg>