<?xml version="1.0" standalone="no"?><!DOCTYPE svg PUBLIC "-//W3C//DTD SVG 1.1//EN" "http://www.w3.org/Graphics/SVG/1.1/DTD/svg11.dtd"><svg t="1758527674276" class="icon" viewBox="0 0 1024 1024" version="1.1" xmlns="http://www.w3.org/2000/svg" p-id="4193" width="32" height="32" xmlns:xlink="http://www.w3.org/1999/xlink"><path d="M296.448 966.656a215.552 57.344 0 1 0 431.104 0 215.552 57.344 0 1 0-431.104 0Z" opacity=".4" p-id="4194"></path><path d="M400.384 966.656a111.616 28.672 0 1 0 223.232 0 111.616 28.672 0 1 0-223.232 0Z" opacity=".4" p-id="4195"></path><path d="M512 967.168c-13.824 0-25.088-10.752-25.088-25.088v-312.32c0-13.824 10.752-25.088 25.088-25.088s25.088 10.752 25.088 25.088v312.32c0 14.336-11.264 25.088-25.088 25.088z" fill="#BC022E" p-id="4196"></path><path d="M175.104 336.896c0 186.368 150.528 336.896 336.896 336.896s336.896-150.528 336.896-336.896S698.368 0 512 0 175.104 150.528 175.104 336.896z" fill="#FF0000" p-id="4197"></path><path d="M666.112 196.608c-14.848 34.816-36.352 65.536-61.952 91.136 26.112 20.48 56.832 37.376 88.064 48.64-8.192 7.168-18.432 20.48-23.552 29.184-31.744-12.8-62.464-31.744-89.088-55.296-29.184 24.064-61.952 42.496-94.208 55.296-3.584-8.192-14.848-22.528-22.528-28.672 32.768-11.264 64.512-28.672 92.672-50.176-12.8-13.824-24.064-28.672-34.816-44.544-10.752 12.288-22.528 24.064-35.84 34.816-4.608-6.144-12.288-14.848-19.968-20.48-21.504 34.304-46.592 68.608-72.192 98.304l71.168-10.24c-0.512 9.728 0.512 23.04 1.024 30.72-96.256 15.36-109.568 18.432-119.296 23.552-1.024-7.168-7.168-23.552-10.752-31.744 8.704-2.048 17.92-10.24 29.184-24.064 6.144-7.168 19.968-23.552 34.816-44.544-40.96 4.608-50.176 7.168-56.32 8.704-2.048-7.168-7.168-24.064-11.264-33.28 7.168-2.048 13.824-10.752 22.528-23.552 8.192-12.288 34.816-59.904 50.176-104.448l34.304 13.824c-16.384 38.912-38.912 78.848-59.904 111.104l41.472-3.072c8.192-12.8 16.384-26.624 23.04-40.96l27.648 17.408c33.792-29.184 56.832-66.56 69.632-96.768l36.864 6.144c-5.12 10.24-10.24 21.504-15.872 31.744h77.824l6.144-1.024 20.992 12.288z m-332.8 245.76c34.816-5.12 87.552-15.872 138.24-25.088l2.56 31.232c-47.104 10.24-96.768 20.48-135.168 28.16l-5.632-34.304z m178.176-30.72c51.2 12.8 112.64 37.376 147.968 56.832l-20.48 28.16c-34.304-20.48-96.768-45.056-147.968-59.392l20.48-25.6z m42.496-65.024c28.16 10.24 62.464 27.648 80.896 40.96l-20.48 25.6c-18.432-13.824-52.736-32.768-80.896-43.52l20.48-23.04z m25.088-81.408c15.36-14.848 28.672-31.744 39.424-49.664l-77.824 0.512c9.728 17.408 23.04 33.792 38.4 49.152z" fill="#FFFFFF" p-id="4198"></path></svg>