<?xml version="1.0" standalone="no"?><!DOCTYPE svg PUBLIC "-//W3C//DTD SVG 1.1//EN" "http://www.w3.org/Graphics/SVG/1.1/DTD/svg11.dtd"><svg t="1758526927257" class="icon" viewBox="0 0 1024 1024" version="1.1" xmlns="http://www.w3.org/2000/svg" p-id="6627" xmlns:xlink="http://www.w3.org/1999/xlink" width="32" height="32"><path d="M369.67868657 975.39362648a142.32131343 47.44043781 0 1 0 284.64262686 0 142.32131343 47.44043781 0 1 0-284.64262686 0Z" fill="#CCCCCC" p-id="6628"></path><path d="M488.27978056 619.59034237h47.44043888v332.08306573h-47.44043888z" fill="#2aa515" p-id="6629"></path><path d="M512 311.227495m-308.3628463 0a308.3628463 308.3628463 0 1 0 616.7256926 0 308.3628463 308.3628463 0 1 0-616.7256926 0Z" fill="#2aa515" p-id="6630"></path><path d="M351.46155821 443.61003812c16.43811217-28.74890549 25.30947383-72.10946518 26.61408499-130.03424046l23.98114232 1.28089187a608.56593848 608.56593848 0 0 1-4.69660425 58.37545889c8.11231448 17.41064045 18.85757376 31.31068923 32.25949823 41.67642385v-120.80707448H353.09825332v-23.67277873h66.48777336V224.05569096H364.4365173v-23.67277872h55.14950938V154.34196703h25.28575348v46.04094521h54.48534364v23.67277872H444.87178016v46.3730281h60.960963v23.67277873h-51.87611918v50.28686371h49.29061508v23.34069584h-49.29061508v61.29304588c15.01489815 6.04865611 32.30693787 9.17972525 51.87611918 9.39320634 52.96724925 0.45068467 108.87580477 0 167.67822798-1.28089187-3.89011633 9.72529029-6.92630403 18.26456907-9.08484382 25.61783635-68.10074918 0.21348216-123.25025752-0.11860072-165.40108747-0.97252828-52.32680278-0.97252935-88.04945302-19.90126419-107.16794859-56.76248415-6.07237647 28.32194118-14.75397634 51.3542745-26.11596173 69.07327747a482.23205148 482.23205148 0 0 0-14.27957132-30.48048096z m194.26859369-83.66121238c0 11.67034792 5.83517396 17.50552188 17.50552081 17.50552082h55.7899548c12.09731116 0 18.90501447-5.28960893 20.42310885-15.89254606 1.30461223-9.72529029 2.49062267-24.1946234 3.55803346-43.45544112 6.71282187 3.03618771 14.94373814 6.16725684 24.66902736 9.4169267-1.96877799 20.9686739-3.91383562 36.29193457-5.85889432 46.01722487-3.2259495 18.193408-16.4143918 27.27825182-39.56532479 27.27825182H557.06841587c-23.98114124 0-35.98357205-12.33451368-35.98357205-37.00354211v-105.3889324h101.16673425V196.82487986h-107.33399109v-23.3644162h132.00301846v119.36014225h-24.66902737v-11.02990252h-76.52142617v78.15812235z" fill="#FFFFFF" p-id="6631"></path></svg>