<?xml version="1.0" standalone="no"?><!DOCTYPE svg PUBLIC "-//W3C//DTD SVG 1.1//EN" "http://www.w3.org/Graphics/SVG/1.1/DTD/svg11.dtd"><svg t="1758615143445" class="icon" viewBox="0 0 1024 1024" version="1.1" xmlns="http://www.w3.org/2000/svg" p-id="5354" width="64" height="64" xmlns:xlink="http://www.w3.org/1999/xlink"><path d="M508.586667 34.133333c187.733333 0 341.333333 153.6 341.333333 341.333334s-153.6 341.333333-341.333333 341.333333-341.333333-153.6-341.333334-341.333333 153.6-341.333333 341.333334-341.333334z" fill="#FFFFFF" p-id="5355"></path><path d="M512 0C307.2 0 136.533333 170.666667 136.533333 382.293333 136.533333 529.066667 245.76 682.666667 245.76 682.666667L512 1024l249.173333-341.333333c-3.413333 0 126.293333-167.253333 126.293334-300.373334C887.466667 170.666667 716.8 0 512 0z m0 692.906667c-81.92 0-160.426667-34.133333-218.453333-92.16C235.52 546.133333 204.8 460.8 204.8 375.466667s34.133333-163.84 92.16-221.866667c58.026667-58.026667 139.946667-92.16 218.453333-92.16C682.666667 64.853333 819.2 204.8 819.2 378.88c0 170.666667-139.946667 314.026667-307.2 314.026667z m-40.96-184.32v-51.2h44.373333v-51.2H471.04v-47.786667h47.786667V307.2H447.146667V269.653333h58.026666V218.453333H447.146667V167.253333H392.533333v51.2H327.68v51.2h64.853333V307.2H314.026667v51.2h105.813333v126.293333c-10.24-10.24-20.48-27.306667-27.306667-40.96 3.413333-20.48 3.413333-44.373333 3.413334-68.266666H341.333333c0 68.266667-6.826667 119.466667-23.893333 153.6 17.066667 20.48 30.72 34.133333 40.96 47.786666 10.24-17.066667 17.066667-40.96 23.893333-64.853333 17.066667 34.133333 51.2 47.786667 92.16 51.2 40.96 3.413333 116.053333 3.413333 225.28 3.413333 3.413333-20.48 10.24-40.96 17.066667-58.026666-68.266667 3.413333-119.466667 3.413333-160.426667 3.413333-44.373333-3.413333-71.68-3.413333-85.333333-3.413333z m160.426667-215.04h-102.4v129.706666c0 40.96 17.066667 58.026667 54.613333 58.026667h47.786667c34.133333 0 54.613333-10.24 61.44-34.133333 3.413333-10.24 10.24-30.72 13.653333-61.44-13.653333-3.413333-30.72-10.24-54.613333-20.48 0 34.133333-3.413333 54.613333-6.826667 61.44-3.413333 6.826667-10.24 10.24-20.48 10.24h-20.48c-13.653333 0-20.48-6.826667-20.48-17.066667v-68.266667h102.4V187.733333h-163.84v47.786667h109.226667v58.026667z" fill="#27E000" p-id="5356"></path></svg>