<?xml version="1.0" standalone="no"?><!DOCTYPE svg PUBLIC "-//W3C//DTD SVG 1.1//EN" "http://www.w3.org/Graphics/SVG/1.1/DTD/svg11.dtd"><svg t="1758685542509" class="icon" viewBox="0 0 1024 1024" version="1.1" xmlns="http://www.w3.org/2000/svg" p-id="8439" width="128" height="128" xmlns:xlink="http://www.w3.org/1999/xlink"><path d="M511.999488 1023.520069c282.518468 0 511.523139-229.003648 511.523139-511.524163 0-282.514375-229.004671-511.518023-511.523139-511.518023-282.520515 0-511.523139 229.003648-511.523139 511.518023C0.476349 794.516422 229.478973 1023.520069 511.999488 1023.520069zM942.930101 589.717036c-16.356526 91.784426-59.631122 173.844374-121.117498 237.19112-58.8442 60.647265-134.382617 104.10094-218.8678 122.499985 4.237511-43.818995 9.335622-104.541985 17.362436-156.401096 22.070668-142.7901 66.686818-204.836225 191.425797-229.057883 35.012422-6.80601 71.749114-6.969739 108.470457-6.149047C938.418344 557.199435 948.825368 564.821019 942.930101 589.717036zM96.153432 365.006158c21.745257-67.305919 58.428737-127.573537 106.029872-176.592974 79.903841-82.381266 194.868199-123.55706 309.833581-123.55706 114.926496 0 229.876528 41.175795 309.793672 123.55706 47.605228 49.019437 84.288708 109.287055 106.014522 176.592974 6.02625 22.604834-2.000564 33.266661-23.980157 32.045857-72.117504-2.860141-227.513714-5.135974-259.416308-6.78759 27.389814 32.022321 44.020586 74.111928 44.020586 120.151497 0 50.205449-19.744693 95.675036-51.676963 128.574331-11.413957 11.755742-24.345478 21.89159-38.522362 30.083156-26.677593 15.44783-56.466036 23.163559-86.234013 23.178909-29.80584-0.016373-59.59326-7.732102-86.269829-23.178909-14.156418-8.192589-27.131941-18.327414-38.523385-30.083156-31.934317-32.898271-51.676963-78.368882-51.676963-128.574331 0-46.039569 16.614399-88.129176 44.031842-120.151497-31.912827 1.651616-187.309036 3.927449-259.424494 6.78759C98.156042 398.272819 90.168114 387.610992 96.153432 365.006158zM103.777063 557.800116c36.72339-0.820692 73.462129-0.657986 108.472504 6.149047 124.753305 24.221658 169.373549 86.267782 191.446263 229.057883 8.004301 51.859112 13.116739 112.582101 17.358343 156.401096-84.504626-18.380626-160.021553-61.85272-218.885196-122.499985-61.467957-63.345724-104.740506-145.405671-121.100102-237.19112C75.173608 564.821019 85.565283 557.199435 103.777063 557.800116z" p-id="8440" fill="#2ecad9"></path><path d="M412.975171 612.639095c9.769504 10.067286 20.944008 18.621103 33.245172 25.385157 40.812521 22.400173 90.744747 22.400173 131.558291 0 12.281721-6.763031 23.489994-15.33629 33.227776-25.385157 25.347295-26.111704 41.014112-62.194504 41.014112-102.042047 0-39.832194-15.667841-75.914994-41.014112-102.011348-51.097772-52.639894-146.953933-52.639894-198.031239 0-25.330922 26.096355-40.99774 62.179155-40.99774 102.011348C371.976408 550.444591 387.644249 586.528414 412.975171 612.639095zM490.073106 455.355909c13.921058-5.897314 29.913287-5.897314 43.855834 0 21.011546 8.892531 35.82595 30.206976 35.82595 55.061037 0 23.472598-13.195533 43.777039-32.334429 53.462632-15.848966 8.022721-34.974559 8.022721-50.839899 0-19.165502-9.685593-32.338522-29.990035-32.338522-53.462632C454.243063 485.562884 469.05542 464.24844 490.073106 455.355909z" p-id="8441" fill="#2ecad9"></path></svg>